<svg xmlns="http://www.w3.org/2000/svg" viewBox="0 0 32 32">
  <rect width="32" height="32" rx="6" fill="#111111"/>
  <!-- Antenna -->
  <circle cx="16" cy="4" r="1.5" fill="#FF8C35"/>
  <rect x="15.3" y="5.3" width="1.4" height="3" fill="#FF8C35"/>
  <!-- Left wing/shoulder -->
  <path d="M4.5,6.5 L16,8 L16,13.5 L7.5,14 Z" fill="#FF8C35"/>
  <!-- Right wing/shoulder -->
  <path d="M27.5,6.5 L16,8 L16,13.5 L24.5,14 Z" fill="#FF8C35"/>
  <!-- Left outer leg -->
  <path d="M7.5,14 L13.5,14.5 L9,28 L3,28 Z" fill="#FF8C35"/>
  <!-- Left inner leg -->
  <path d="M13.5,14.5 L16,14.5 L15,28 L12,28 Z" fill="#FF8C35"/>
  <!-- Right inner leg -->
  <path d="M16,14.5 L18.5,14.5 L20,28 L17,28 Z" fill="#FF8C35"/>
  <!-- Right outer leg -->
  <path d="M18.5,14.5 L24.5,14 L29,28 L23,28 Z" fill="#FF8C35"/>
  <!-- Eye cutouts -->
  <polygon points="7.5,9 12,10.5 9.5,13.5" fill="#111111"/>
  <polygon points="24.5,9 20,10.5 22.5,13.5" fill="#111111"/>
</svg>
